<?xml version="1.0" encoding="UTF-8"?>
<svg version="1.1" xmlns="http://www.w3.org/2000/svg" width="600" height="175">
<path d="M0 0 C198 0 396 0 600 0 C600 57.75 600 115.5 600 175 C402 175 204 175 0 175 C0 117.25 0 59.5 0 0 Z " fill="#151937" transform="translate(0,0)"/>
<path d="M0 0 C1.11375 0.1546875 1.11375 0.1546875 2.25 0.3125 C3.5 6.9375 3.5 6.9375 1.25 10.3125 C0.59 10.3125 -0.07 10.3125 -0.75 10.3125 C-0.75 11.3025 -0.75 12.2925 -0.75 13.3125 C0.9 12.6525 2.55 11.9925 4.25 11.3125 C3.92 12.3025 3.59 13.2925 3.25 14.3125 C4.61125 14.745625 4.61125 14.745625 6 15.1875 C11.77341505 17.18598982 14.432045 18.57594874 17.25 24.3125 C19.25071444 33.78044785 15.06538772 41.45101475 10.25 49.3125 C7.78238724 52.85005423 5.13953593 56.11275544 2.25 59.3125 C1.38568359 60.28123047 1.38568359 60.28123047 0.50390625 61.26953125 C-9.52251823 71.89800431 -21.37096222 76.89694706 -35.75 78.3125 C-37.41644757 78.33952347 -39.0837447 78.3495279 -40.75 78.3125 C-40.3375 77.095625 -39.925 75.87875 -39.5 74.625 C-39.23058594 73.80128906 -38.96117187 72.97757812 -38.68359375 72.12890625 C-38.03421026 70.16988743 -37.35762687 68.21976193 -36.66015625 66.27734375 C-33.58824835 57.28026118 -32.35020536 48.62823826 -34.75 39.3125 C-35.31126807 32.96585336 -35.15952071 26.86039606 -31.75 21.3125 C-27.56605391 16.77247339 -24.18900354 14.4305163 -17.875 14.125 C-14.41536366 14.05038039 -11.90854841 14.92031751 -8.75 16.3125 C-8.65203125 15.57644531 -8.5540625 14.84039062 -8.453125 14.08203125 C-6.40680763 0.72804632 -6.40680763 0.72804632 0 0 Z " fill="#05E55B" transform="translate(88.75,50.6875)"/>
<path d="M0 0 C4.95 0 9.9 0 15 0 C18.97307985 8.29672556 22.13525963 16.74149059 25.11279297 25.42822266 C26.11578921 28.33564215 27.1370875 31.23630313 28.16015625 34.13671875 C28.89854153 36.2369426 29.63682362 38.33720272 30.375 40.4375 C30.73311768 41.45102539 31.09123535 42.46455078 31.46020508 43.50878906 C31.79044678 44.45334961 32.12068848 45.39791016 32.4609375 46.37109375 C32.75790527 47.21599365 33.05487305 48.06089355 33.36083984 48.93139648 C34 51 34 51 34 53 C29.71 53 25.42 53 21 53 C19.02 47.555 19.02 47.555 17 42 C10.73 41.67 4.46 41.34 -2 41 C-2.495 43.475 -2.495 43.475 -3 46 C-3.89305874 48.39228689 -4.94896026 50.66943362 -6 53 C-9.96 53 -13.92 53 -18 53 C-17.3855529 48.52113765 -16.25025559 44.5759705 -14.671875 40.34375 C-14.44099182 39.71956177 -14.21010864 39.09537354 -13.972229 38.45227051 C-13.23649475 36.46627656 -12.49353565 34.48308467 -11.75 32.5 C-11.02533151 30.55296984 -10.30219651 28.60537516 -9.57922363 26.65771484 C-9.10021362 25.36746642 -8.62064206 24.07742633 -8.14050293 22.78759766 C-5.33097458 15.22852597 -2.55024145 7.65072435 0 0 Z " fill="#E9D752" transform="translate(494,65)"/>
<path d="M0 0 C26 0 26 0 34 4 C38.72955359 9.0933654 39.35723593 12.44247571 39.27734375 19.2421875 C38.75182353 24.46778291 35.80542959 27.40360817 32.0625 30.75 C27.21789726 34.30929997 23.68447246 35.25680159 17.6875 35.125 C15.810625 35.08375 13.93375 35.0425 12 35 C12 40.94 12 46.88 12 53 C8.04 53 4.08 53 0 53 C0 35.51 0 18.02 0 0 Z " fill="#41D291" transform="translate(136,65)"/>
<path d="M0 0 C0.99 0.66 1.98 1.32 3 2 C3.29296875 4.6015625 3.29296875 4.6015625 3.1875 7.625 C3.14689453 9.12933594 3.14689453 9.12933594 3.10546875 10.6640625 C3.07066406 11.43492188 3.03585937 12.20578125 3 13 C2.01 12.67 1.02 12.34 0 12 C-7.02285092 10.03190267 -12.48062923 10.48956958 -19 14 C-21.79656139 16.35499907 -22.83771178 17.51313533 -24 21 C-24.12065456 23.10163415 -24.17536009 25.20744033 -24.1875 27.3125 C-24.20876953 28.97732422 -24.20876953 28.97732422 -24.23046875 30.67578125 C-23.99125203 34.12617832 -23.32060813 36.81087186 -22 40 C-20.21734114 41.3498008 -20.21734114 41.3498008 -18 42 C-17.236875 42.37125 -16.47375 42.7425 -15.6875 43.125 C-9.06221162 45.28207064 -2.59820785 43.44618254 4 42 C4 45.3 4 48.6 4 52 C-1.04715609 54.47114006 -5.20924606 55.52484391 -10.875 55.4375 C-11.92772095 55.42396484 -11.92772095 55.42396484 -13.00170898 55.41015625 C-19.97338724 55.1780088 -24.95841621 53.91827634 -30.0234375 49.05859375 C-37.19154728 41.1151578 -38.37712439 35.12172711 -38.27734375 24.51171875 C-37.66069665 16.7037505 -33.85210631 10.14934245 -28 5 C-19.79580805 -1.40445814 -9.90738548 -0.94783648 0 0 Z " fill="#B4EA64" transform="translate(356,64)"/>
<path d="M0 0 C3.76916441 2.7326442 6.02501042 5.38753126 7.5 9.8125 C7.5833804 11.95044525 7.60733747 14.09092009 7.59765625 16.23046875 C7.59443359 17.48408203 7.59121094 18.73769531 7.58789062 20.02929688 C7.57532227 21.99479492 7.57532227 21.99479492 7.5625 24 C7.55748317 25.33528481 7.55292059 26.67057141 7.54882812 28.00585938 C7.53702695 31.27478473 7.52056297 34.54361991 7.5 37.8125 C3.87 37.8125 0.24 37.8125 -3.5 37.8125 C-3.83 36.4925 -4.16 35.1725 -4.5 33.8125 C-5.28375 34.6375 -6.0675 35.4625 -6.875 36.3125 C-10.46529033 39.30582995 -13.58913806 39.47604564 -18.15625 39.2421875 C-21.49644079 38.62981919 -23.26886175 37.33152706 -25.5 34.8125 C-26.43786758 31.99889727 -26.7577219 29.9364633 -26.875 27 C-26.94847656 25.75283203 -26.94847656 25.75283203 -27.0234375 24.48046875 C-26.27395292 20.66033466 -24.53560245 18.15106143 -21.5 15.8125 C-18.60716675 14.72152282 -15.74734356 14.30683569 -12.6875 13.9375 C-11.89923828 13.82148437 -11.11097656 13.70546875 -10.29882812 13.5859375 C-8.36907499 13.30524614 -6.43483706 13.0556879 -4.5 12.8125 C-4.84786708 10.83713255 -4.84786708 10.83713255 -5.5 8.8125 C-9.44477952 6.84011024 -14.50115637 7.18740708 -18.6484375 8.484375 C-20.29471044 9.19664003 -21.90247755 9.99674385 -23.5 10.8125 C-23.5 7.8425 -23.5 4.8725 -23.5 1.8125 C-15.85968062 -1.71380125 -8.09962441 -2.74808685 0 0 Z " fill="#6CDB80" transform="translate(227.5,80.1875)"/>
<path d="M0 0 C2.97238318 2.39082995 4.24327057 3.90411096 5.875 7.3125 C6.21557617 10.6340332 6.21557617 10.6340332 6.16796875 14.36328125 C6.16372391 15.02208786 6.15947906 15.68089447 6.15510559 16.35966492 C6.13841196 18.44853885 6.10078058 20.53642139 6.0625 22.625 C6.04744097 24.04751203 6.03375469 25.4700393 6.02148438 26.89257812 C5.98854003 30.36620351 5.93682408 33.83925487 5.875 37.3125 C2.245 37.3125 -1.385 37.3125 -5.125 37.3125 C-5.455 36.3225 -5.785 35.3325 -6.125 34.3125 C-6.74375 34.9725 -7.3625 35.6325 -8 36.3125 C-12.36483723 39.10599583 -16.06938155 39.265476 -21.125 38.3125 C-24.74206278 36.40954729 -26.81181024 34.25206929 -28.125 30.3125 C-28.46731315 25.00664624 -28.65640599 21.57454172 -25.125 17.3125 C-19.82130985 12.83751143 -11.82849191 12.3125 -5.125 12.3125 C-5.455 10.6625 -5.785 9.0125 -6.125 7.3125 C-7.87465358 7.25820041 -9.62479787 7.21957177 -11.375 7.1875 C-12.34953125 7.16429688 -13.3240625 7.14109375 -14.328125 7.1171875 C-17.18669722 7.31680847 -18.65038147 7.9694378 -21.125 9.3125 C-22.115 9.3125 -23.105 9.3125 -24.125 9.3125 C-24.125 6.6725 -24.125 4.0325 -24.125 1.3125 C-17.02318809 -2.651302 -7.43542961 -3.8917355 0 0 Z " fill="#C5E65E" transform="translate(393.125,80.6875)"/>
<path d="M0 0 C4.33760626 2.62348728 7.73106536 5.2412449 9.29296875 10.2109375 C9.72794502 14.1257239 9.60546875 18.08455988 9.60546875 22.0234375 C1.35546875 22.0234375 -6.89453125 22.0234375 -15.39453125 22.0234375 C-13.22786458 27.85677083 -13.22786458 27.85677083 -10.39453125 29.0234375 C-8.45902261 29.12064177 -6.51997333 29.15321664 -4.58203125 29.1484375 C-3.54433594 29.15101562 -2.50664062 29.15359375 -1.4375 29.15625 C1.35889817 29.03419925 3.88486754 28.65707105 6.60546875 28.0234375 C6.60546875 30.6634375 6.60546875 33.3034375 6.60546875 36.0234375 C-0.23136691 39.97828397 -6.67474027 39.91608999 -14.39453125 39.0234375 C-19.05454993 37.29139516 -22.96955619 34.44545085 -25.39453125 30.0234375 C-27.37502635 23.88390268 -27.54454421 15.88748106 -25.7109375 9.7265625 C-20.67580234 0.28307248 -10.09792691 -4.11824099 0 0 Z " fill="#DADC56" transform="translate(463.39453125,79.9765625)"/>
<path d="M0 0 C3.51781033 3.00048528 5.00286089 5.58839468 5.46557617 10.22583008 C5.4420105 12.13464966 5.4420105 12.13464966 5.41796875 14.08203125 C5.41372391 14.76303391 5.40947906 15.44403656 5.40510559 16.14567566 C5.3884061 18.30586459 5.35077312 20.46509642 5.3125 22.625 C5.29744174 24.09568958 5.28375534 25.56639389 5.27148438 27.03710938 C5.23853214 30.62921357 5.18681173 34.22076326 5.125 37.8125 C1.495 37.8125 -2.135 37.8125 -5.875 37.8125 C-5.91238281 36.05421875 -5.94976562 34.2959375 -5.98828125 32.484375 C-6.0539365 30.17706184 -6.12038399 27.86977113 -6.1875 25.5625 C-6.21005859 24.40363281 -6.23261719 23.24476562 -6.25585938 22.05078125 C-6.3090332 20.37822266 -6.3090332 20.37822266 -6.36328125 18.671875 C-6.38946533 17.64545898 -6.41564941 16.61904297 -6.44262695 15.56152344 C-6.93178039 12.45149088 -7.66355171 11.03144914 -9.875 8.8125 C-12.96623454 8.36169496 -14.91103446 8.14080892 -17.53051758 9.96606445 C-19.43508767 12.58169249 -19.30832574 14.57885517 -19.38671875 17.79296875 C-19.42216797 18.95634766 -19.45761719 20.11972656 -19.49414062 21.31835938 C-19.52797852 23.14077148 -19.52797852 23.14077148 -19.5625 25 C-19.59666016 26.22654297 -19.63082031 27.45308594 -19.66601562 28.71679688 C-19.74858776 31.74837377 -19.8134673 34.78042309 -19.875 37.8125 C-23.835 37.8125 -27.795 37.8125 -31.875 37.8125 C-31.875 25.2725 -31.875 12.7325 -31.875 -0.1875 C-27.915 -0.1875 -23.955 -0.1875 -19.875 -0.1875 C-19.545 1.1325 -19.215 2.4525 -18.875 3.8125 C-18.276875 3.173125 -17.67875 2.53375 -17.0625 1.875 C-12.50446032 -2.42258027 -5.58261988 -2.30586473 0 0 Z " fill="#88E376" transform="translate(275.875,80.1875)"/>
<path d="M0 0 C0 3.63 0 7.26 0 11 C2.64 11 5.28 11 8 11 C8 13.64 8 16.28 8 19 C5.36 19 2.72 19 0 19 C0.33 25.93 0.66 32.86 1 40 C4.465 40.495 4.465 40.495 8 41 C8.09765625 47.15234375 8.09765625 47.15234375 8 49 C6.21066124 50.78933876 3.6698379 50.25643059 1.25 50.3125 C-2.77743706 50.28380092 -4.59301144 50.23605336 -8.125 48.1875 C-11.30451851 44.47806174 -12.24862385 42.50045821 -12.1953125 37.67578125 C-12.18886719 36.64775391 -12.18242187 35.61972656 -12.17578125 34.56054688 C-12.15902344 33.48869141 -12.14226562 32.41683594 -12.125 31.3125 C-12.11597656 30.22904297 -12.10695313 29.14558594 -12.09765625 28.02929688 C-12.0740734 25.3526429 -12.04116126 22.67643203 -12 20 C-13.98 20 -15.96 20 -18 20 C-18 17.03 -18 14.06 -18 11 C-16.02 11 -14.04 11 -12 11 C-12 8.03 -12 5.06 -12 2 C-7.82262526 0.40861915 -4.46839215 -0.21278058 0 0 Z " fill="#9FE76C" transform="translate(305,69)"/>
<path d="M0 0 C0.66 0.33 1.32 0.66 2 1 C2 1.66 2 2.32 2 3 C2.639375 3.28875 3.27875 3.5775 3.9375 3.875 C6 5 6 5 7 7 C7.33 6.01 7.66 5.02 8 4 C8.66 4 9.32 4 10 4 C10.391875 3.505 10.78375 3.01 11.1875 2.5 C13 1 13 1 16.375 0.625 C21.17752237 1.12181266 23.60470968 2.51169033 26.875 6 C27.24625 6.66 27.6175 7.32 28 8 C27.67 8.99 27.34 9.98 27 11 C25.2984375 10.2884375 25.2984375 10.2884375 23.5625 9.5625 C19.08701048 7.8651766 14.75287814 7.31905895 10 7 C10 8.32 10 9.64 10 11 C10.66 11 11.32 11 12 11 C12 10.34 12 9.68 12 9 C18.41923331 9.29112169 22.62100206 10.45215029 28 14 C28 15.65 28 17.3 28 19 C22.88634986 17.9318153 17.92772031 16.76892524 13 15 C13 14.01 13 13.02 13 12 C12.34 12 11.68 12 11 12 C11 12.99 11 13.98 11 15 C9.68 15 8.36 15 7 15 C7 13.68 7 12.36 7 11 C6.34 11 5.68 11 5 11 C5 12.32 5 13.64 5 15 C3.88625 15.185625 2.7725 15.37125 1.625 15.5625 C0.42875 16.036875 -0.7675 16.51125 -2 17 C-3.47082547 20.47957529 -3.47082547 20.47957529 -4 24 C-5.52311313 25.52311313 -7.22528957 25.56274479 -9.3125 26 C-12.22400191 26.61598718 -15.11701446 27.26111126 -18 28 C-18 26.35 -18 24.7 -18 23 C-18.99 23 -19.98 23 -21 23 C-21.41448943 15.50848734 -21.18662918 9.33054735 -16.62890625 3.13671875 C-11.65220338 -2.05480583 -6.69552185 -1.49899743 0 0 Z " fill="#06D959" transform="translate(75,67)"/>
<path d="M0 0 C3.96 0 7.92 0 12 0 C12 18.81 12 37.62 12 57 C8.04 57 4.08 57 0 57 C0 38.19 0 19.38 0 0 Z " fill="#57D588" transform="translate(181,61)"/>
<path d="M0 0 C3.96 0 7.92 0 12 0 C12 17.49 12 34.98 12 53 C8.04 53 4.08 53 0 53 C0 35.51 0 18.02 0 0 Z " fill="#F4D24E" transform="translate(535,65)"/>
<path d="M0 0 C0 3.63 0 7.26 0 11 C-1.2375 10.9175 -2.475 10.835 -3.75 10.75 C-6.74854343 10.5500971 -7.70414917 10.76398107 -10.09570312 12.671875 C-12.43137234 15.52738034 -12.53171544 16.99062571 -12.609375 20.640625 C-12.64160156 21.71054688 -12.67382812 22.78046875 -12.70703125 23.8828125 C-12.72830078 25.54957031 -12.72830078 25.54957031 -12.75 27.25 C-12.77964844 28.37664062 -12.80929687 29.50328125 -12.83984375 30.6640625 C-12.9104775 33.44232338 -12.95751019 36.2211662 -13 39 C-16.96 39 -20.92 39 -25 39 C-25 26.46 -25 13.92 -25 1 C-21.04 1 -17.08 1 -13 1 C-12.67 1.99 -12.34 2.98 -12 4 C-11.319375 3.34 -10.63875 2.68 -9.9375 2 C-6.35542625 -0.43885872 -4.24480464 -0.33292585 0 0 Z " fill="#CEE05A" transform="translate(434,79)"/>
<path d="M0 0 C0.66 0 1.32 0 2 0 C2.84454356 3.37817425 3.10844919 5.67465243 2 9 C3.65 9 5.3 9 7 9 C7.33 8.01 7.66 7.02 8 6 C8.495 8.475 8.495 8.475 9 11 C6.03 11 3.06 11 0 11 C0 9.02 0 7.04 0 5 C-1.65 5 -3.3 5 -5 5 C-5.66 7.64 -6.32 10.28 -7 13 C-4.69 13.33 -2.38 13.66 0 14 C0 14.33 0 14.66 0 15 C-0.83402344 15.03738281 -1.66804688 15.07476562 -2.52734375 15.11328125 C-9.5546669 15.52381216 -15.43907095 16.44234969 -22 19 C-21.96519531 19.76183594 -21.93039063 20.52367188 -21.89453125 21.30859375 C-21.71195877 28.27242967 -22.47855035 33.55492871 -25 40 C-25.70983495 42.3230962 -26.3523644 44.65854822 -27 47 C-26.071875 46.360625 -25.14375 45.72125 -24.1875 45.0625 C-21 43 -21 43 -18 42 C-16.87483915 40.16715557 -16.87483915 40.16715557 -16 38 C-15.33333333 36.66666667 -14.66666667 35.33333333 -14 34 C-13.01 34 -12.02 34 -11 34 C-11.59496754 37.32741108 -12.70477173 39.17090408 -14.9375 41.6875 C-15.46214844 42.28949219 -15.98679687 42.89148438 -16.52734375 43.51171875 C-18 45 -18 45 -20 46 C-13.47934522 44.98114769 -7.5110547 42.61662965 -2 39 C-2.4640625 38.13375 -2.4640625 38.13375 -2.9375 37.25 C-3.92583364 35.15705816 -4.5168613 33.25464725 -5 31 C-4.67 31 -4.34 31 -4 31 C-3.67 28.36 -3.34 25.72 -3 23 C0 23 0 23 2.5 25.375 C3.325 26.24125 4.15 27.1075 5 28 C5.99 28.66 6.98 29.32 8 30 C8.45744141 32.88468152 8.45016363 34.36529724 6.7421875 36.7734375 C-4.55214529 46.46104512 -17.1105356 51.24588106 -32 51 C-31.5875 49.783125 -31.175 48.56625 -30.75 47.3125 C-30.48058594 46.48363281 -30.21117187 45.65476563 -29.93359375 44.80078125 C-29.29649195 42.88947584 -28.62007114 40.99094162 -27.91015625 39.10546875 C-24.66327697 29.91945797 -24.58611065 21.5999335 -25 12 C-24.34 12 -23.68 12 -23 12 C-23 13.65 -23 15.3 -23 17 C-22.154375 16.525625 -21.30875 16.05125 -20.4375 15.5625 C-16.87412671 13.94278487 -13.87438575 13.38743857 -10 13 C-9.896875 11.88625 -9.79375 10.7725 -9.6875 9.625 C-9.460625 8.42875 -9.23375 7.2325 -9 6 C-5.5647952 3.70986347 -4.014669 3.82157027 0 4 C0 2.68 0 1.36 0 0 Z " fill="#05DF5A" transform="translate(80,78)"/>
<path d="M0 0 C1.11375 0.1546875 1.11375 0.1546875 2.25 0.3125 C3.5 6.9375 3.5 6.9375 1.25 10.3125 C0.59 10.3125 -0.07 10.3125 -0.75 10.3125 C-0.75 11.3025 -0.75 12.2925 -0.75 13.3125 C0.9 12.6525 2.55 11.9925 4.25 11.3125 C3.92 12.3025 3.59 13.2925 3.25 14.3125 C4.1575 14.60125 5.065 14.89 6 15.1875 C12.47758621 17.42974138 12.47758621 17.42974138 15 20.3125 C16.80131741 24.63566179 16.49227996 28.69123401 16.25 33.3125 C15.92 32.3225 15.59 31.3325 15.25 30.3125 C12.7114054 29.18350549 12.7114054 29.18350549 9.25 28.3125 C8.3115625 28.05210938 7.373125 27.79171875 6.40625 27.5234375 C3.69055255 26.77452093 0.97177865 26.03895338 -1.75 25.3125 C-1.75 25.9725 -1.75 26.6325 -1.75 27.3125 C-2.41 27.3125 -3.07 27.3125 -3.75 27.3125 C-3.75 25.9925 -3.75 24.6725 -3.75 23.3125 C2.70892714 22.90881705 7.31108578 23.7209738 13.25 26.3125 C12.35368306 23.29761576 11.57087126 21.59447778 9.1875 19.5 C5.1599584 17.87184489 1.53776332 18.06027863 -2.75 18.3125 C-3.08 19.6325 -3.41 20.9525 -3.75 22.3125 C-3.75 21.6525 -3.75 20.9925 -3.75 20.3125 C-4.74 21.3025 -5.73 22.2925 -6.75 23.3125 C-6.09 23.6425 -5.43 23.9725 -4.75 24.3125 C-7.06 24.3125 -9.37 24.3125 -11.75 24.3125 C-10.43 23.9825 -9.11 23.6525 -7.75 23.3125 C-8.41 22.69375 -9.07 22.075 -9.75 21.4375 C-11.75 19.3125 -11.75 19.3125 -11.75 17.3125 C-15.38 16.9825 -19.01 16.6525 -22.75 16.3125 C-22.42 15.6525 -22.09 14.9925 -21.75 14.3125 C-20.533125 14.27125 -19.31625 14.23 -18.0625 14.1875 C-17.03576172 14.15269531 -17.03576172 14.15269531 -15.98828125 14.1171875 C-13.29898909 14.35185523 -11.20464018 15.22059351 -8.75 16.3125 C-8.65203125 15.57644531 -8.5540625 14.84039062 -8.453125 14.08203125 C-6.40680763 0.72804632 -6.40680763 0.72804632 0 0 Z " fill="#03ED5D" transform="translate(88.75,50.6875)"/>
<path d="M0 0 C-0.36615939 2.45997226 -0.57148286 3.66338429 -2.56640625 5.23046875 C-7.45630192 7.57493928 -11.58414771 8.61315341 -17 9 C-17 9.66 -17 10.32 -17 11 C-10.07 9.515 -10.07 9.515 -3 8 C-9.82463929 16.25305216 -9.82463929 16.25305216 -14 19 C-15.32 19 -16.64 19 -18 19 C-18 19.66 -18 20.32 -18 21 C-14.535 20.505 -14.535 20.505 -11 20 C-14.76334357 26.06990899 -18.88761199 29.36452739 -25 33 C-25.33 32.34 -25.66 31.68 -26 31 C-25.45397506 29.62136245 -24.8350369 28.27147177 -24.1875 26.9375 C-22.32476133 22.66820298 -21.74408081 19.00121 -21.46044922 14.41992188 C-20.85137098 4.97217362 -20.85137098 4.97217362 -18.265625 2.01953125 C-12.61532027 -0.75552976 -6.15349026 -0.41406663 0 0 Z " fill="#283E36" transform="translate(78,93)"/>
<path d="M0 0 C0 0.66 0 1.32 0 2 C0.66 2 1.32 2 2 2 C2 1.34 2 0.68 2 0 C4.31 0 6.62 0 9 0 C9 0.66 9 1.32 9 2 C9.99 2 10.98 2 12 2 C12 1.34 12 0.68 12 0 C18.41923331 0.29112169 22.62100206 1.45215029 28 5 C28 6.65 28 8.3 28 10 C22.88634986 8.9318153 17.92772031 7.76892524 13 6 C13 5.01 13 4.02 13 3 C12.34 3 11.68 3 11 3 C11 3.99 11 4.98 11 6 C9.68 6 8.36 6 7 6 C7 4.68 7 3.36 7 2 C6.34 2 5.68 2 5 2 C5 3.32 5 4.64 5 6 C3.68 6 2.36 6 1 6 C1 5.01 1 4.02 1 3 C0.34 3 -0.32 3 -1 3 C-1.33 3.99 -1.66 4.98 -2 6 C-6.93777371 8.69671257 -12.40914215 10.41148865 -18 11 C-18 8.69 -18 6.38 -18 4 C-15.5636811 3.32873871 -13.12611117 2.66283646 -10.6875 2 C-9.65206055 1.71382813 -9.65206055 1.71382813 -8.59570312 1.421875 C-5.64212051 0.62283816 -3.07440781 0 0 0 Z " fill="#293B36" transform="translate(75,76)"/>
<path d="M0 0 C8.05718867 -0.48102619 8.05718867 -0.48102619 12.0625 1.5625 C14 4 14 4 14.5 7.4375 C13.97948793 11.14614848 13.37115604 13.12073909 11 16 C7.46900919 17.63938859 3.96738468 17 0 17 C0 11.39 0 5.78 0 0 Z " fill="#141B35" transform="translate(148,74)"/>
<path d="M0 0 C1.65 0 3.3 0 5 0 C5 1.98 5 3.96 5 6 C7.97 6 10.94 6 14 6 C14 4.35 14 2.7 14 1 C15.62992692 1.39695637 17.25392235 1.81832493 18.875 2.25 C20.23238281 2.59804687 20.23238281 2.59804687 21.6171875 2.953125 C24 4 24 4 25.3203125 6.109375 C25.54460937 6.73328125 25.76890625 7.3571875 26 8 C21.32875885 11.73699292 16.70758575 11.56886237 11 11 C8.375 10.0625 8.375 10.0625 6 9 C3.33658308 8.54355755 0.69111418 8.27367263 -2 8 C-1.125 2.25 -1.125 2.25 0 0 Z " fill="#293B34" transform="translate(75,83)"/>
<path d="M0 0 C2 1 2 1 2.68603516 2.82592773 C2.98453369 3.99297241 2.98453369 3.99297241 3.2890625 5.18359375 C3.61777344 6.45106445 3.61777344 6.45106445 3.953125 7.74414062 C4.17484375 8.63294922 4.3965625 9.52175781 4.625 10.4375 C4.85445313 11.32244141 5.08390625 12.20738281 5.3203125 13.11914062 C7 19.68291946 7 19.68291946 7 22 C2.71 22 -1.58 22 -6 22 C-5.37798054 19.45757096 -4.75248241 16.91608125 -4.125 14.375 C-3.95097656 13.66214844 -3.77695312 12.94929688 -3.59765625 12.21484375 C-2.57145662 8.07203784 -1.41209271 4.03273322 0 0 Z " fill="#1F2037" transform="translate(501,75)"/>
<path d="M0 0 C0.66 0 1.32 0 2 0 C2.84454356 3.37817425 3.10844919 5.67465243 2 9 C3.65 9 5.3 9 7 9 C7.33 8.01 7.66 7.02 8 6 C8.495 8.475 8.495 8.475 9 11 C6.03 11 3.06 11 0 11 C0 9.02 0 7.04 0 5 C-1.65 5 -3.3 5 -5 5 C-5.66 7.64 -6.32 10.28 -7 13 C-4.69 13.33 -2.38 13.66 0 14 C0 14.33 0 14.66 0 15 C-0.83402344 15.03738281 -1.66804688 15.07476562 -2.52734375 15.11328125 C-9.5546669 15.52381216 -15.43907095 16.44234969 -22 19 C-22 22.96 -22 26.92 -22 31 C-22.66 31.33 -23.32 31.66 -24 32 C-24.33 25.4 -24.66 18.8 -25 12 C-24.34 12 -23.68 12 -23 12 C-23 13.65 -23 15.3 -23 17 C-22.154375 16.525625 -21.30875 16.05125 -20.4375 15.5625 C-16.87412671 13.94278487 -13.87438575 13.38743857 -10 13 C-9.896875 11.88625 -9.79375 10.7725 -9.6875 9.625 C-9.460625 8.42875 -9.23375 7.2325 -9 6 C-5.5647952 3.70986347 -4.014669 3.82157027 0 4 C0 2.68 0 1.36 0 0 Z " fill="#01F65E" transform="translate(80,78)"/>
<path d="M0 0 C0.33 0 0.66 0 1 0 C1.28875 1.0725 1.5775 2.145 1.875 3.25 C2.72820109 6.09400364 3.5636503 8.43508983 5 11 C-0.98684081 15.61485646 -7.11489996 19.73922813 -15 19 C-14.61328125 18.55269531 -14.2265625 18.10539062 -13.828125 17.64453125 C-9.79032443 12.95708455 -5.86754123 8.25597307 -2.3125 3.1875 C-1.549375 2.135625 -0.78625 1.08375 0 0 Z " fill="#243534" transform="translate(74,106)"/>
<path d="M0 0 C0.78375 0.04125 1.5675 0.0825 2.375 0.125 C3.625 6.75 3.625 6.75 1.375 10.125 C0.715 10.125 0.055 10.125 -0.625 10.125 C-0.625 11.115 -0.625 12.105 -0.625 13.125 C-1.285 13.125 -1.945 13.125 -2.625 13.125 C-2.295 14.115 -1.965 15.105 -1.625 16.125 C-3.275 16.785 -4.925 17.445 -6.625 18.125 C-8.22915783 13.31252651 -8.20181817 9.51460741 -6.25 4.8125 C-3.43913911 0.16376853 -3.43913911 0.16376853 0 0 Z " fill="#05E25B" transform="translate(88.625,50.875)"/>
<path d="M0 0 C5.94 0 11.88 0 18 0 C15.96719098 3.38801504 14.3456602 5.94158511 11.8125 8.8125 C11.01779297 9.71935547 11.01779297 9.71935547 10.20703125 10.64453125 C9.80871094 11.09183594 9.41039063 11.53914063 9 12 C4.48652248 9.67878299 1.89912232 7.09287857 -1 3 C-0.67 2.01 -0.34 1.02 0 0 Z " fill="#293533" transform="translate(81,95)"/>
<path d="M0 0 C0.625 1.8125 0.625 1.8125 1 4 C-1.55660406 7.83490609 -2.95591265 7.72132146 -7.375 8.625 C-8.51710938 8.86476563 -9.65921875 9.10453125 -10.8359375 9.3515625 C-11.88007812 9.56554687 -12.92421875 9.77953125 -14 10 C-15.33559019 10.32417238 -16.67020685 10.65281263 -18 11 C-13.78918387 2.57836774 -9.54125777 -0.65801778 0 0 Z " fill="#273C3A" transform="translate(75,67)"/>
<path d="M0 0 C0.2145758 3.14711179 0.23318878 5.44617664 -1 8.375 C-4.20952621 10.98274005 -6.95057743 10.32656634 -11 10 C-12 9 -12 9 -12.25 6.0625 C-12.1675 5.051875 -12.085 4.04125 -12 3 C-8.06769671 0.37846447 -4.67664739 0 0 0 Z " fill="#13182F" transform="translate(388,100)"/>
<path d="M0 0 C-0.59449312 6.30162703 -0.59449312 6.30162703 -2.125 8.9375 C-5.06213035 10.60187386 -7.70574299 10.24401904 -11 10 C-12 9 -12 9 -12.1875 6.0625 C-12 3 -12 3 -10 1 C-6.68421778 -0.18420794 -3.49088913 -0.07933839 0 0 Z " fill="#12192D" transform="translate(224,100)"/>
<path d="M0 0 C1.875 1.1875 1.875 1.1875 3 3 C3 4.65 3 6.3 3 8 C-1.62 8 -6.24 8 -11 8 C-8.64643433 0.939303 -7.26980581 -0.75727144 0 0 Z " fill="#212436" transform="translate(459,87)"/>
<path d="M0 0 C0.33 0 0.66 0 1 0 C1.05449838 1.72880982 1.09301688 3.45812712 1.125 5.1875 C1.14820312 6.15042969 1.17140625 7.11335938 1.1953125 8.10546875 C0.9913544 11.12812778 0.26874632 13.26769985 -1 16 C-1.65226562 15.65066406 -2.30453125 15.30132812 -2.9765625 14.94140625 C-7.63695125 12.51497966 -11.67136947 10.42068136 -17 10 C-17.33 10.66 -17.66 11.32 -18 12 C-19.65 12 -21.3 12 -23 12 C-22.67 10.35 -22.34 8.7 -22 7 C-21.01 7 -20.02 7 -19 7 C-19 6.01 -19 5.02 -19 4 C-18.34 4 -17.68 4 -17 4 C-17 4.99 -17 5.98 -17 7 C-16.195625 7.103125 -15.39125 7.20625 -14.5625 7.3125 C-10.21752614 8.15100373 -6.16542473 9.52821659 -2 11 C-2 9.35 -2 7.7 -2 6 C-1.67 6 -1.34 6 -1 6 C-0.67 4.02 -0.34 2.04 0 0 Z " fill="#0ABE52" transform="translate(105,75)"/>
<path d="M0 0 C5.00566288 -0.29445076 7.99160747 -0.11763863 12 3 C13.875 5 13.875 5 15 7 C14.67 7.99 14.34 8.98 14 10 C9.05 8.35 4.1 6.7 -1 5 C-0.67 3.35 -0.34 1.7 0 0 Z " fill="#273736" transform="translate(88,68)"/>
<path d="M0 0 C1.13199353 0.9080162 2.25532363 1.82683826 3.375 2.75 C4.00148438 3.26046875 4.62796875 3.7709375 5.2734375 4.296875 C7.08312318 6.08199481 8.00117455 7.67949644 9 10 C7.35 11.65 5.7 13.3 4 15 C1.39524999 13.15146773 0.14706094 11.69030844 -0.5234375 8.54296875 C-0.79141107 6.01170489 -1.02318582 3.54580309 -1 1 C-0.67 0.67 -0.34 0.34 0 0 Z " fill="#283633" transform="translate(78,100)"/>
<path d="M0 0 C-3.9320706 5.32732146 -8.38053494 8.5475182 -14 12 C-15 10 -15 10 -14.22265625 7.6171875 C-13.83980469 6.71226563 -13.45695312 5.80734375 -13.0625 4.875 C-12.68222656 3.96492188 -12.30195312 3.05484375 -11.91015625 2.1171875 C-11.60980469 1.41851562 -11.30945312 0.71984375 -11 0 C-9.54263913 -0.19491452 -8.08405407 -0.38069358 -6.625 -0.5625 C-5.81289063 -0.66691406 -5.00078125 -0.77132812 -4.1640625 -0.87890625 C-2 -1 -2 -1 0 0 Z " fill="#223236" transform="translate(67,114)"/>
<path d="M0 0 C-0.875 5.875 -0.875 5.875 -2 7 C-3.42828582 7.37083283 -4.86821123 7.69743214 -6.3125 8 C-9.22400191 8.61598718 -12.11701446 9.26111126 -15 10 C-15 8.35 -15 6.7 -15 5 C-10.34926862 2.5044856 -5.38826138 0 0 0 Z " fill="#274338" transform="translate(72,85)"/>
<path d="M0 0 C0.33 0.66 0.66 1.32 1 2 C1.66 2.33 2.32 2.66 3 3 C5 4 5 4 6 6 C6.33 5.01 6.66 4.02 7 3 C7.66 3 8.32 3 9 3 C9.66 2.34 10.32 1.68 11 1 C11 2.32 11 3.64 11 5 C12.32 5.33 13.64 5.66 15 6 C13.02 6 11.04 6 9 6 C8.67 7.32 8.34 8.64 8 10 C8 9.34 8 8.68 8 8 C5.69 8 3.38 8 1 8 C1 8.66 1 9.32 1 10 C0.34 10 -0.32 10 -1 10 C-1 9.34 -1 8.68 -1 8 C-3.97 7.505 -3.97 7.505 -7 7 C-7 6.67 -7 6.34 -7 6 C-6.21625 5.938125 -5.4325 5.87625 -4.625 5.8125 C-3.75875 5.544375 -2.8925 5.27625 -2 5 C-0.62533375 2.52363988 -0.62533375 2.52363988 0 0 Z " fill="#0CC954" transform="translate(76,68)"/>
<path d="M0 0 C1.65 0 3.3 0 5 0 C5 1.98 5 3.96 5 6 C7.97 6 10.94 6 14 6 C14 4.35 14 2.7 14 1 C14.66 1.33 15.32 1.66 16 2 C15.67 3.65 15.34 5.3 15 7 C6.585 7.495 6.585 7.495 -2 8 C-1 2 -1 2 0 0 Z " fill="#295138" transform="translate(75,83)"/>
<path d="M0 0 C0.268125 0.598125 0.53625 1.19625 0.8125 1.8125 C1.98493467 3.97224808 3.19369282 5.35790256 5 7 C7.62187494 5.95125002 8.79371361 5.35068687 10.25 2.875 C10.4975 2.25625 10.745 1.6375 11 1 C11.25 3.26171875 11.25 3.26171875 11 6 C9.25 8.01953125 9.25 8.01953125 7 9.8125 C6.2575 10.41707031 5.515 11.02164063 4.75 11.64453125 C4.1725 12.09183594 3.595 12.53914063 3 13 C2.01 12.34 1.02 11.68 0 11 C0 9.68 0 8.36 0 7 C-0.61344757 5.31301918 -1.27095914 3.64034193 -2 2 C-1.34 1.34 -0.68 0.68 0 0 Z " fill="#07D557" transform="translate(77,107)"/>
<path d="M0 0 C5.0407792 -0.17087387 8.34058802 -0.05562293 13 2 C13.66 1.67 14.32 1.34 15 1 C15 1.99 15 2.98 15 4 C15.66 4 16.32 4 17 4 C16.34 5.65 15.68 7.3 15 9 C15.66 9.33 16.32 9.66 17 10 C14.69 10 12.38 10 10 10 C11.32 9.67 12.64 9.34 14 9 C13.34 8.38125 12.68 7.7625 12 7.125 C10 5 10 5 10 3 C6.37 2.67 2.74 2.34 -1 2 C-0.67 1.34 -0.34 0.68 0 0 Z " fill="#01F75F" transform="translate(67,65)"/>
<path d="M0 0 C3.375 -0.1875 3.375 -0.1875 7 0 C9 3 9 3 9 6 C7.68 6 6.36 6 5 6 C5 4.68 5 3.36 5 2 C4.34 2 3.68 2 3 2 C3 3.32 3 4.64 3 6 C1.68 6 0.36 6 -1 6 C-1.33 4.68 -1.66 3.36 -2 2 C-1.34 2 -0.68 2 0 2 C0 1.34 0 0.68 0 0 Z " fill="#2B4536" transform="translate(77,76)"/>
<path d="M0 0 C-0.43147241 2.50254 -0.64631061 3.70072437 -2.625 5.375 C-3.07875 5.91125 -3.5325 6.4475 -4 7 C-3.76716851 10.14921909 -3.76716851 10.14921909 -3 13 C-4.32 13.33 -5.64 13.66 -7 14 C-7.19188324 9.20291909 -6.9022844 5.43866361 -5 1 C-3 0 -3 0 0 0 Z " fill="#232F3A" transform="translate(90,54)"/>
<path d="M0 0 C0.66 0 1.32 0 2 0 C2 0.99 2 1.98 2 3 C3.65 3.33 5.3 3.66 7 4 C6.38125 4.28875 5.7625 4.5775 5.125 4.875 C2.86674235 5.93720042 2.86674235 5.93720042 1 8 C-1.625 8.125 -1.625 8.125 -4 8 C-3.67 6.35 -3.34 4.7 -3 3 C-2.01 3 -1.02 3 0 3 C0 2.01 0 1.02 0 0 Z " fill="#03F15D" transform="translate(86,79)"/>
<path d="M0 0 C6.45892714 -0.40368295 11.06108578 0.4084738 17 3 C16.01 4.485 16.01 4.485 15 6 C13.783125 5.525625 12.56625 5.05125 11.3125 4.5625 C8.22731209 3.40075962 5.26878802 2.51074813 2 2 C2 2.66 2 3.32 2 4 C1.34 4 0.68 4 0 4 C0 2.68 0 1.36 0 0 Z " fill="#06E15A" transform="translate(85,74)"/>
<path d="M0 0 C0.75 1.75 0.75 1.75 1 4 C-0.9375 6.25 -0.9375 6.25 -3 8 C-3 7.34 -3 6.68 -3 6 C-3.99 6.495 -3.99 6.495 -5 7 C-7.6723621 7.13415472 -10.32250488 7.04318541 -13 7 C-10.49350367 5.69662191 -7.99102161 4.5824917 -5.375 3.5 C-2.00448724 2.24380662 -2.00448724 2.24380662 0 0 Z " fill="#02F15D" transform="translate(102,89)"/>
<path d="M0 0 C2 3 2 3 1.8125 6.25 C0.95460766 10.20950311 -0.28527718 13.34689487 -2 17 C-3.1171875 15.421875 -3.1171875 15.421875 -4 13 C-3.3203125 9.765625 -3.3203125 9.765625 -2.125 6.25 C-1.73570313 5.07953125 -1.34640625 3.9090625 -0.9453125 2.703125 C-0.63335937 1.81109375 -0.32140625 0.9190625 0 0 Z " fill="#06D758" transform="translate(55,107)"/>
<path d="M0 0 C0.71542969 0.14308594 1.43085937 0.28617187 2.16796875 0.43359375 C3.56982422 0.71396484 3.56982422 0.71396484 5 1 C8.99414062 1.79882812 8.99414062 1.79882812 12.98828125 2.59765625 C13.98408203 2.79681641 13.98408203 2.79681641 15 3 C11.99060247 4.73830497 9.84057335 5.251248 6.375 5.1875 C5.21097656 5.17783203 5.21097656 5.17783203 4.0234375 5.16796875 C2 5 2 5 0 4 C0 2.68 0 1.36 0 0 Z " fill="#09D456" transform="translate(78,91)"/>
<path d="M0 0 C0.66 0 1.32 0 2 0 C2 0.99 2 1.98 2 3 C-2.99848692 7.37367606 -6.41304906 8.65331837 -13 9 C-10.71655095 5.57482643 -9.69539895 5.27304106 -5.9375 3.9375 C-2.2132816 2.85294935 -2.2132816 2.85294935 0 0 Z " fill="#06E35A" transform="translate(74,79)"/>
<path d="M0 0 C0 0.99 0 1.98 0 3 C-4.17737474 4.59138085 -7.53160785 5.21278058 -12 5 C-12 4.34 -12 3.68 -12 3 C-10.37604003 2.49663233 -8.75079459 1.99741024 -7.125 1.5 C-6.22007813 1.2215625 -5.31515625 0.943125 -4.3828125 0.65625 C-2 0 -2 0 0 0 Z " fill="#07DC59" transform="translate(73,99)"/>
<path d="M0 0 C0.33 1.32 0.66 2.64 1 4 C2.32 4.33 3.64 4.66 5 5 C3.02 5 1.04 5 -1 5 C-1.33 6.32 -1.66 7.64 -2 9 C-2 8.34 -2 7.68 -2 7 C-4.31 7 -6.62 7 -9 7 C-9 6.67 -9 6.34 -9 6 C-7.35 5.67 -5.7 5.34 -4 5 C-3.67 4.01 -3.34 3.02 -3 2 C-2.34 2 -1.68 2 -1 2 C-0.67 1.34 -0.34 0.68 0 0 Z " fill="#13AA4D" transform="translate(86,69)"/>
<path d="M0 0 C0.99 0 1.98 0 3 0 C3 0.66 3 1.32 3 2 C4.98 1.67 6.96 1.34 9 1 C8.67 1.66 8.34 2.32 8 3 C4.52674819 4.1577506 1.63932552 4.06866652 -2 4 C-1.34 2.68 -0.68 1.36 0 0 Z " fill="#01F65E" transform="translate(55,124)"/>
<path d="M0 0 C0.66 0 1.32 0 2 0 C2 4.29 2 8.58 2 13 C1.34 13 0.68 13 0 13 C-1.49084832 8.52745503 -1.49084832 4.47254497 0 0 Z " fill="#04E65B" transform="translate(82,56)"/>
<path d="M0 0 C0.66 0 1.32 0 2 0 C2.33 1.98 2.66 3.96 3 6 C-1.29 6 -5.58 6 -10 6 C-10 5.67 -10 5.34 -10 5 C-5.545 4.505 -5.545 4.505 -1 4 C-0.67 2.68 -0.34 1.36 0 0 Z " fill="#E1C84E" transform="translate(525,112)"/>
<path d="M0 0 C1.21236328 0.01353516 1.21236328 0.01353516 2.44921875 0.02734375 C3.37154297 0.04474609 3.37154297 0.04474609 4.3125 0.0625 C3.9825 0.7225 3.6525 1.3825 3.3125 2.0625 C1.31640625 2.546875 1.31640625 2.546875 -1.125 2.8125 C-2.32962891 2.95945312 -2.32962891 2.95945312 -3.55859375 3.109375 C-5.6875 3.0625 -5.6875 3.0625 -7.6875 1.0625 C-4.80538698 0.10179566 -2.98899956 -0.04331883 0 0 Z " fill="#07DA59" transform="translate(68.6875,74.9375)"/>
<path d="M0 0 C-0.33 1.98 -0.66 3.96 -1 6 C-4.68754757 5.50168276 -6.60490662 4.89932357 -9 2 C-2.25 0 -2.25 0 0 0 Z " fill="#26593B" transform="translate(72,85)"/>
<path d="M0 0 C0 0.66 0 1.32 0 2 C-1.98 2.66 -3.96 3.32 -6 4 C-6.33 6.31 -6.66 8.62 -7 11 C-7.33 11 -7.66 11 -8 11 C-8.48801743 3.5577342 -8.48801743 3.5577342 -6.25 1 C-4 0 -4 0 0 0 Z " fill="#01F75F" transform="translate(63,77)"/>
<path d="M0 0 C1.65 0.33 3.3 0.66 5 1 C4.01 1.495 4.01 1.495 3 2 C3 3.32 3 4.64 3 6 C1.68 6 0.36 6 -1 6 C-1.33 4.68 -1.66 3.36 -2 2 C-1.34 2 -0.68 2 0 2 C0 1.34 0 0.68 0 0 Z " fill="#285539" transform="translate(77,76)"/>
<path d="M0 0 C0.33 1.32 0.66 2.64 1 4 C-2.3 4.33 -5.6 4.66 -9 5 C-9 4.34 -9 3.68 -9 3 C-6.03 2.01 -3.06 1.02 0 0 Z " fill="#02F35D" transform="translate(69,109)"/>
<path d="M0 0 C-0.33 0.99 -0.66 1.98 -1 3 C-2.65 3.33 -4.3 3.66 -6 4 C-6.33 4.99 -6.66 5.98 -7 7 C-7.6875 5.1875 -7.6875 5.1875 -8 3 C-5.85915306 -0.33020635 -3.75910189 -0.30479204 0 0 Z " fill="#09C456" transform="translate(91,51)"/>
<path d="M0 0 C1.31554985 0.4495045 2.62738358 0.90989716 3.9375 1.375 C5.03384766 1.75785156 5.03384766 1.75785156 6.15234375 2.1484375 C8 3 8 3 9 5 C5.1936543 4.32829194 1.64793184 3.27253436 -2 2 C-1.34 1.34 -0.68 0.68 0 0 Z " fill="#03EE5D" transform="translate(93,83)"/>
<path d="M0 0 C0.66 0.33 1.32 0.66 2 1 C2.40729228 3.32156597 2.74438677 5.6568787 3 8 C1.68 7.67 0.36 7.34 -1 7 C-1.33 7.66 -1.66 8.32 -2 9 C-1.34 6.03 -0.68 3.06 0 0 Z " fill="#44423C" transform="translate(501,75)"/>
<path d="M0 0 C2.475 0.495 2.475 0.495 5 1 C5 1.99 5 2.98 5 4 C3.35 4 1.7 4 0 4 C0 2.68 0 1.36 0 0 Z " fill="#22703E" transform="translate(82,83)"/>
<path d="M0 0 C0.33 0 0.66 0 1 0 C1.66 2.31 2.32 4.62 3 7 C1.68 7.33 0.36 7.66 -1 8 C-1.04241723 5.66705225 -1.04092937 3.33297433 -1 1 C-0.67 0.67 -0.34 0.34 0 0 Z " fill="#25443A" transform="translate(84,60)"/>
<path d="M0 0 C-1.32 1.32 -2.64 2.64 -4 4 C-4.33 3.34 -4.66 2.68 -5 2 C-7.01669827 0.86649466 -7.01669827 0.86649466 -9 0 C-2.25 -1.125 -2.25 -1.125 0 0 Z " fill="#1E5E3D" transform="translate(99,96)"/>
</svg>
